<svg width="23" height="22" viewBox="0 0 23 22" fill="none" xmlns="http://www.w3.org/2000/svg">
<path fill-rule="evenodd" clip-rule="evenodd" d="M11.1065 0.13269C11.2894 0.1328 11.4699 0.172401 11.6347 0.248568C11.7995 0.324734 11.9445 0.43552 12.0587 0.572741L16.9419 6.44009C17.048 6.55962 17.1282 6.69845 17.1775 6.84832C17.2268 6.99819 17.2442 7.15606 17.2288 7.31255C17.2135 7.46904 17.1655 7.62096 17.0879 7.7593C17.0102 7.89763 16.9045 8.01956 16.7768 8.11785C16.6492 8.21614 16.5024 8.28879 16.345 8.33147C16.1876 8.37416 16.0229 8.38602 15.8607 8.36634C15.6985 8.34667 15.542 8.29586 15.4006 8.21694C15.2591 8.13802 15.1357 8.0326 15.0374 7.90692L12.3273 4.65055V13.0409C12.3273 13.3521 12.1987 13.6506 11.9698 13.8706C11.7408 14.0907 11.4303 14.2143 11.1065 14.2143C10.7828 14.2143 10.4723 14.0907 10.2433 13.8706C10.0144 13.6506 9.88576 13.3521 9.88576 13.0409V4.65055L7.17563 7.9081C7.07742 8.03377 6.95393 8.1392 6.81251 8.21812C6.67109 8.29704 6.51462 8.34784 6.35239 8.36752C6.19015 8.38719 6.02545 8.37533 5.86807 8.33265C5.7107 8.28996 5.56384 8.21732 5.43623 8.11903C5.30862 8.02074 5.20286 7.89881 5.12521 7.76047C5.04756 7.62213 4.99962 7.47021 4.98423 7.31372C4.96884 7.15723 4.98631 6.99937 5.03561 6.8495C5.08491 6.69962 5.16503 6.5608 5.27122 6.44126L10.1543 0.573915C10.2685 0.436478 10.4134 0.325469 10.5782 0.249096C10.743 0.172724 10.9236 0.132941 11.1065 0.13269ZM7.4442 13.0409V11.8674H2.56109C1.91355 11.8674 1.29253 12.1146 0.834652 12.5548C0.376772 12.9949 0.119537 13.5919 0.119537 14.2143V18.9082C0.119537 19.5306 0.376772 20.1276 0.834652 20.5677C1.29253 21.0079 1.91355 21.2551 2.56109 21.2551H19.652C20.2995 21.2551 20.9205 21.0079 21.3784 20.5677C21.8363 20.1276 22.0935 19.5306 22.0935 18.9082V14.2143C22.0935 13.5919 21.8363 12.9949 21.3784 12.5548C20.9205 12.1146 20.2995 11.8674 19.652 11.8674H14.7689V13.0409C14.7689 13.9745 14.383 14.87 13.6962 15.5302C13.0094 16.1904 12.0778 16.5613 11.1065 16.5613C10.1352 16.5613 9.2037 16.1904 8.51688 15.5302C7.83006 14.87 7.4442 13.9745 7.4442 13.0409ZM17.2104 15.3878C16.8867 15.3878 16.5761 15.5114 16.3472 15.7315C16.1183 15.9516 15.9896 16.25 15.9896 16.5613C15.9896 16.8725 16.1183 17.171 16.3472 17.391C16.5761 17.6111 16.8867 17.7347 17.2104 17.7347H17.2226C17.5464 17.7347 17.8569 17.6111 18.0859 17.391C18.3148 17.171 18.4434 16.8725 18.4434 16.5613C18.4434 16.25 18.3148 15.9516 18.0859 15.7315C17.8569 15.5114 17.5464 15.3878 17.2226 15.3878H17.2104Z" fill="#007E7D"/>
</svg>
