<svg width="153" height="70" viewBox="0 0 153 70" fill="none" xmlns="http://www.w3.org/2000/svg">
<path d="M15.3564 36.9949V13.1949H30.3504V16.7309H19.0284V33.4589H30.3504V36.9949H15.3564ZM17.0224 26.5569V23.0209H28.4804V26.5569H17.0224ZM47.2232 36.9949L41.4432 29.4809L40.9332 28.8349L33.4192 19.1449H37.8392L43.5172 26.5569L44.0952 27.3049L51.5072 36.9949H47.2232ZM33.4532 36.9949L40.4912 27.8149L42.5652 30.2969L37.6012 36.9949H33.4532ZM44.2992 28.3589L42.3612 25.9109L46.7472 19.1449H50.8952L44.2992 28.3589Z" fill="#007E7D"/>
<path d="M65.1654 13.9858C63.8039 15.0507 63.0372 16.4865 63.0301 17.9838C63.0366 19.4757 63.7994 20.9073 65.1525 21.9716C66.5075 20.9073 67.2697 19.4763 67.2768 17.9838C67.2768 16.4889 66.5185 15.0537 65.1654 13.9858ZM63.8783 36.9619V27.2573C63.8783 23.8231 60.4617 19.1586 55.1121 19.1586V28.8639C55.1121 34.1925 60.4351 36.9619 63.8783 36.9619ZM66.3866 36.9619V27.2573C66.3866 23.8231 69.8039 19.1586 75.1528 19.1586V28.8639C75.1528 34.1925 69.8297 36.9619 66.3866 36.9619Z" fill="white" stroke="#007E7D" stroke-width="2" stroke-linecap="round" stroke-linejoin="round"/>
<path d="M80.5389 36.991V19.141H84.0749V22.949L83.4289 23.357C83.6103 22.7676 83.8936 22.201 84.2789 21.657C84.6869 21.113 85.1743 20.637 85.7409 20.229C86.3303 19.7983 86.9536 19.4583 87.6109 19.209C88.2909 18.9596 88.9823 18.835 89.6849 18.835C90.7049 18.835 91.6003 19.005 92.3709 19.345C93.1416 19.685 93.7763 20.195 94.2749 20.875C94.7736 21.555 95.1363 22.405 95.3629 23.425L94.8189 23.289L95.0569 22.711C95.3063 22.1896 95.6463 21.7023 96.0769 21.249C96.5303 20.773 97.0403 20.3536 97.6069 19.991C98.1736 19.6283 98.7743 19.345 99.4089 19.141C100.044 18.937 100.667 18.835 101.279 18.835C102.616 18.835 103.716 19.107 104.577 19.651C105.461 20.195 106.118 21.0223 106.549 22.133C107.002 23.2436 107.229 24.6263 107.229 26.281V36.991H103.693V26.485C103.693 25.465 103.557 24.6376 103.285 24.003C103.036 23.3456 102.65 22.8583 102.129 22.541C101.608 22.2236 100.939 22.065 100.123 22.065C99.4883 22.065 98.8876 22.1783 98.3209 22.405C97.7769 22.609 97.3009 22.9036 96.8929 23.289C96.4849 23.6743 96.1676 24.1276 95.9409 24.649C95.7143 25.1476 95.6009 25.703 95.6009 26.315V36.991H92.0649V26.417C92.0649 25.4876 91.9289 24.7056 91.6569 24.071C91.3849 23.4136 90.9883 22.915 90.4669 22.575C89.9456 22.235 89.3109 22.065 88.5629 22.065C87.9283 22.065 87.3389 22.1783 86.7949 22.405C86.2509 22.609 85.7749 22.9036 85.3669 23.289C84.9589 23.6516 84.6416 24.0936 84.4149 24.615C84.1883 25.1136 84.0749 25.6576 84.0749 26.247V36.991H80.5389Z" fill="#007E7D"/>
<path d="M43.0331 66.3025C41.3104 66.3025 39.7011 65.9965 38.2051 65.3845C36.7091 64.7499 35.3944 63.8772 34.2611 62.7665C33.1277 61.6559 32.2437 60.3639 31.6091 58.8905C30.9971 57.3945 30.6911 55.7852 30.6911 54.0625C30.6911 52.3625 30.9971 50.7759 31.6091 49.3025C32.2437 47.8292 33.1164 46.5485 34.2271 45.4605C35.3604 44.3499 36.6751 43.4885 38.1711 42.8765C39.6671 42.2645 41.2764 41.9585 42.9991 41.9585C44.2004 41.9585 45.3677 42.1285 46.5011 42.4685C47.6571 42.8085 48.6997 43.2845 49.6291 43.8965C50.5584 44.5085 51.3177 45.2112 51.9071 46.0045L49.5271 48.4865C48.8471 47.8292 48.1444 47.2852 47.4191 46.8545C46.7164 46.4239 45.9911 46.0952 45.2431 45.8685C44.4951 45.6419 43.7471 45.5285 42.9991 45.5285C41.7751 45.5285 40.6417 45.7439 39.5991 46.1745C38.5791 46.6052 37.6724 47.2059 36.8791 47.9765C36.1084 48.7472 35.5077 49.6539 35.0771 50.6965C34.6464 51.7165 34.4311 52.8385 34.4311 54.0625C34.4311 55.2412 34.6577 56.3632 35.1111 57.4285C35.5644 58.4712 36.1877 59.3892 36.9811 60.1825C37.7971 60.9759 38.7264 61.5992 39.7691 62.0525C40.8344 62.5059 41.9564 62.7325 43.1351 62.7325C44.0191 62.7325 44.8577 62.6079 45.6511 62.3585C46.4444 62.0865 47.1471 61.7125 47.7591 61.2365C48.3711 60.7605 48.8471 60.2165 49.1871 59.6045C49.5271 58.9699 49.6971 58.3012 49.6971 57.5985V56.9185L50.2071 57.3945H42.9311V53.7565H53.4711C53.5164 54.0059 53.5504 54.2552 53.5731 54.5045C53.5958 54.7312 53.6071 54.9579 53.6071 55.1845C53.6298 55.3885 53.6411 55.5925 53.6411 55.7965C53.6411 57.3605 53.3691 58.7885 52.8251 60.0805C52.2811 61.3499 51.5217 62.4492 50.5471 63.3785C49.5951 64.3079 48.4731 65.0332 47.1811 65.5545C45.9117 66.0532 44.5291 66.3025 43.0331 66.3025ZM63.7943 66.3025C62.525 66.3025 61.4143 66.0079 60.4623 65.4185C59.533 64.8292 58.8077 64.0019 58.2863 62.9365C57.7877 61.8712 57.5383 60.6019 57.5383 59.1285V48.1125H61.0403V58.1765C61.0403 59.2192 61.199 60.1259 61.5163 60.8965C61.8563 61.6445 62.3323 62.2225 62.9443 62.6305C63.579 63.0385 64.3383 63.2425 65.2223 63.2425C65.8797 63.2425 66.4803 63.1405 67.0243 62.9365C67.5683 62.7099 68.033 62.4039 68.4183 62.0185C68.8263 61.6332 69.1437 61.1685 69.3703 60.6245C69.597 60.0805 69.7103 59.4912 69.7103 58.8565V48.1125H73.2123V65.9625H69.7103V62.2225L70.3223 61.8145C70.0503 62.6532 69.5857 63.4125 68.9283 64.0925C68.2937 64.7725 67.5343 65.3165 66.6503 65.7245C65.7663 66.1099 64.8143 66.3025 63.7943 66.3025ZM84.9923 66.3025C83.5189 66.3025 82.1703 65.8945 80.9463 65.0785C79.7449 64.2625 78.7816 63.1519 78.0563 61.7465C77.3309 60.3412 76.9683 58.7545 76.9683 56.9865C76.9683 55.1959 77.3309 53.6092 78.0563 52.2265C78.8043 50.8212 79.8016 49.7219 81.0483 48.9285C82.3176 48.1352 83.7343 47.7385 85.2983 47.7385C86.2276 47.7385 87.0776 47.8745 87.8483 48.1465C88.6189 48.4185 89.2876 48.8039 89.8543 49.3025C90.4436 49.7785 90.9196 50.3339 91.2823 50.9685C91.6676 51.6032 91.9056 52.2832 91.9963 53.0085L91.2143 52.7365V48.1125H94.7503V65.9625H91.2143V61.7125L92.0303 61.4745C91.8943 62.0865 91.6109 62.6872 91.1803 63.2765C90.7723 63.8432 90.2396 64.3532 89.5823 64.8065C88.9476 65.2599 88.2336 65.6225 87.4403 65.8945C86.6696 66.1665 85.8536 66.3025 84.9923 66.3025ZM85.9103 63.0725C86.9756 63.0725 87.9163 62.8119 88.7323 62.2905C89.5483 61.7692 90.1829 61.0552 90.6363 60.1485C91.1123 59.2192 91.3503 58.1652 91.3503 56.9865C91.3503 55.8305 91.1123 54.7992 90.6363 53.8925C90.1829 52.9859 89.5483 52.2719 88.7323 51.7505C87.9163 51.2292 86.9756 50.9685 85.9103 50.9685C84.8676 50.9685 83.9383 51.2292 83.1223 51.7505C82.3289 52.2719 81.6943 52.9859 81.2183 53.8925C80.7649 54.7992 80.5383 55.8305 80.5383 56.9865C80.5383 58.1652 80.7649 59.2192 81.2183 60.1485C81.6943 61.0552 82.3289 61.7692 83.1223 62.2905C83.9383 62.8119 84.8676 63.0725 85.9103 63.0725ZM99.6399 65.9625V48.1125H103.176V53.7225L102.836 52.3625C103.085 51.5012 103.505 50.7192 104.094 50.0165C104.706 49.3139 105.397 48.7585 106.168 48.3505C106.961 47.9425 107.777 47.7385 108.616 47.7385C109.001 47.7385 109.364 47.7725 109.704 47.8405C110.067 47.9085 110.35 47.9879 110.554 48.0785L109.636 51.8865C109.364 51.7732 109.058 51.6825 108.718 51.6145C108.401 51.5239 108.083 51.4785 107.766 51.4785C107.154 51.4785 106.565 51.6032 105.998 51.8525C105.454 52.0792 104.967 52.4079 104.536 52.8385C104.128 53.2465 103.799 53.7339 103.55 54.3005C103.301 54.8445 103.176 55.4452 103.176 56.1025V65.9625H99.6399ZM120.035 66.3025C118.403 66.3025 116.941 65.9059 115.649 65.1125C114.38 64.2965 113.371 63.1972 112.623 61.8145C111.875 60.4092 111.501 58.8112 111.501 57.0205C111.501 55.2299 111.864 53.6432 112.589 52.2605C113.337 50.8552 114.346 49.7559 115.615 48.9625C116.884 48.1465 118.324 47.7385 119.933 47.7385C120.817 47.7385 121.667 47.8859 122.483 48.1805C123.322 48.4525 124.07 48.8379 124.727 49.3365C125.384 49.8125 125.894 50.3452 126.257 50.9345C126.642 51.5012 126.835 52.0792 126.835 52.6685L125.815 52.7365V40.8025H129.317V65.9625H125.815V61.7125H126.495C126.495 62.2565 126.314 62.8005 125.951 63.3445C125.588 63.8659 125.101 64.3532 124.489 64.8065C123.9 65.2599 123.208 65.6225 122.415 65.8945C121.644 66.1665 120.851 66.3025 120.035 66.3025ZM120.511 63.2765C121.576 63.2765 122.517 63.0045 123.333 62.4605C124.149 61.9165 124.784 61.1799 125.237 60.2505C125.713 59.2985 125.951 58.2219 125.951 57.0205C125.951 55.8192 125.713 54.7539 125.237 53.8245C124.784 52.8725 124.149 52.1245 123.333 51.5805C122.517 51.0365 121.576 50.7645 120.511 50.7645C119.446 50.7645 118.505 51.0365 117.689 51.5805C116.873 52.1245 116.227 52.8725 115.751 53.8245C115.298 54.7539 115.071 55.8192 115.071 57.0205C115.071 58.2219 115.298 59.2985 115.751 60.2505C116.227 61.1799 116.873 61.9165 117.689 62.4605C118.505 63.0045 119.446 63.2765 120.511 63.2765Z" fill="#007E7D"/>
</svg>
